<?xml version="1.0" encoding="UTF-8"?>
<svg id="Layer_1" data-name="Layer 1" xmlns="http://www.w3.org/2000/svg" xmlns:xlink="http://www.w3.org/1999/xlink" viewBox="0 0 611.93 570.74">
  <defs>
    <style>
      .cls-1 {
        fill: url(#linear-gradient);
      }

      .cls-1, .cls-2 {
        stroke-width: 0px;
      }

      .cls-3 {
        isolation: isolate;
      }

      .cls-2 {
        fill: #333;
      }
    </style>
    <linearGradient id="linear-gradient" x1="415.17" y1="613.94" x2="139.78" y2="338.46" gradientTransform="translate(0 -280)" gradientUnits="userSpaceOnUse">
      <stop offset="0" stop-color="#ad54d3"/>
      <stop offset=".2" stop-color="#613482"/>
      <stop offset=".3" stop-color="#66f"/>
      <stop offset=".5" stop-color="#6f6"/>
      <stop offset=".7" stop-color="#ff6"/>
      <stop offset=".8" stop-color="#ffc966"/>
      <stop offset="1" stop-color="#f66"/>
    </linearGradient>
  </defs>
  <path class="cls-1" d="m369.49,294.08c14.6,41.2,2.1,78.9-25.5,110.5-73.5,84.2-191.9,43-246.9-39.1-43.6-64.9-51.5-147.4-20.8-219.6C116.09,52.38,215.29-10.22,317.89,14.68c4.3,1.1,27.8,7.5,29.1,9.9l-1,65.1c-7.9,2.7-16.4,2.5-24.6,4.4-11.5,2.7-24.3,9.4-32.6,17.9-16.3,16.4-19.5,37.5-6.2,57,3.5,5.1,26.5,29.2,25.8,32.2-.1.5-1.1,1.1-1.7,1.3-14.2,2.7-28.8,3.5-43.2,3.2,0-2.8-.8-5.1-1.9-7.6-5.2-12.2-38.4-44.8-49.6-55.4-31.9-29.9-61.5-20.8-86.5,11.6-5.6,7.3-15.7,20.9-8.4,29.4,5.2,1.2,17.4-18,20.9-21.9,13.4-15.1,32.3-31.7,52.4-17.4,12.4,8.9,50,44.8,56.6,57.4,4.1,7.9,6.3,17.2,6.5,26-8.4-.2-18,.6-26.3-1.2-6.5-1.4-13-12.3-17.7-17.3-6.3-6.6-14.2-15.1-21-21-7.8-6.6-10.7-9.7-16.8,1.2-4.7,8.4-.2,6.4,4.8,10.8,2.7,2.3,21.5,20.6,21.8,22.2.5,2.7-8.5,9.2-10.9,11.8-18,19.7-21.4,61.8-14.7,86.7,12.7,47.1,52.4,77.6,102.1,73.7,59.5-4.8,90.3-89.4,31.3-115.1-28.1-12.2-62.6,14.3-55,45,3.1,12.5,20.8,26.6,33.9,22.2,9.8-3.3,16.3-13.1,11.4-23-7.6,7.4-13.7,13.2-23.9,5.4-18.1-13.9,5.6-43.5,28.6-34.6,24.9,9.7,25.9,39.4,11.8,59.1-40,55.6-110.1,8.4-96.2-56.2,17.5-80.8,126.5-77.3,152.7-3.3h0l.1-.1Zm187.6-137.5c-5.6-.6-14.2-.1-20.1,0-39,.9-83.3,3.6-122,1.1-4.8-.3-14.3-.9-15.4-6.6-.5-2.7-.5-7.4,2.7-8.3l56.3-2.2c.3-2.6,0-1.6-1.5-2-11.1-3.4-20.9-6.8-29.1-15.4-22.3-23.5-15.9-61.8,15.6-73.1,4.1-1.5,8.8-1.6,12.3-2.7,1-.3,1.9-1.2,1.7-2.3-.2-.7-9.1-9.3-10.5-10.5-15-12.6-43.8-28.7-62.8-33.2-27.5-6.4-20.9,10.5-21.6,29.7-.6,17-2.6,36.9,0,53.9,1.1,7,10,12.6,7.9,20.6-14.3.6-30.2.7-44.2,3.3-23.8,4.4-49.4,28.9-30.3,52.7,13.1,16.4,33.5,32,48,48,7.3,8,7.6,14.1,19.3,17.7,8.5,2.6,17.5,2.3,26.2,3.3-.2-11.4-3.1-22.2-10.2-31.3l-51.9-51.1c-7.1-8.3,15.4-9.1,17.1-8.1.8.5,8.3,12.1,10.5,14.5,14.1,16.2,31.2,29.9,42.5,48.5,11.9.5,23.2,2.3,34.8-.9,2.7,1,4.7,12.8,6.3,14.3,1.8,1.7,1.7-.6,2.1-1.4,2-3.9,5.1-15.6,9.3-15.6.8,0,4.3,12.6,6.1,14,4-1.6,6.3-15.2,8.1-15.9,4.4-1.6,4,4.2,6,7.8,1,1.9,2.3,3.7,3.9,5.1,2.7-2,7.8-16,10-16l9,13c3.1-1.6,8.7-16.4,9.5-17,3.2-2.3,8.2,15.6,11,13,.3-2.6,6.2-16.4,7.5-17,1.7-.8,7.1,10.8,9,12,5-4.8,7.2-11.3,8.5-18,2.1-1.5,6,8.8,10,7,1.9-4.4.5-7.9.2-12.3l11.8-17.2c-1-1.5-1.9-1.4-3.4-1.6h0l-.2.2Zm-85.9-33.8c33.9-11.6,28.7-66.5-13.9-61.9-45.4,4.9-29.3,76.7,13.9,61.9Zm67.3-18.6c-2.5-3-5.9-5.6-8.5-8.5-7.4-8.2-13.1-17-23-23-.1,7.4,1.1,14.9.4,22.4-2.2,22.3-20.7,40.8-42.9,43.6-.2,2.7,0,1.6,1.5,2,4.2,1,11.6,1.8,16,2.1,26.7,1.5,54.7-1.2,81.5,0,2.5-2.2-22.2-35.1-25-38.5h0v-.1Zm-73.6-1.6c10.9-1.7,9.8-21.1-2.7-19.8-14.4,1.5-12,22.1,2.7,19.8Z"/>
  <g class="cls-3">
    <path class="cls-2" d="m0,544.68c0-15.19,11.67-26.07,27.36-26.07,8.71,0,15.99,3.17,20.74,8.93l-7.49,6.91c-3.38-3.89-7.63-5.91-12.67-5.91-9.43,0-16.13,6.62-16.13,16.13s6.7,16.13,16.13,16.13c5.04,0,9.29-2.02,12.67-5.98l7.49,6.91c-4.75,5.83-12.02,9-20.81,9-15.63,0-27.29-10.87-27.29-26.07Z"/>
    <path class="cls-2" d="m104.69,519.47v50.4h-11.67v-20.67h-22.9v20.67h-11.67v-50.4h11.67v19.87h22.9v-19.87h11.67Z"/>
    <path class="cls-2" d="m152.35,559.08h-23.4l-4.46,10.8h-11.95l22.47-50.4h11.52l22.54,50.4h-12.24l-4.46-10.8Zm-3.67-8.86l-7.99-19.3-7.99,19.3h15.99Z"/>
    <path class="cls-2" d="m222.7,569.88l-.07-30.24-14.83,24.91h-5.26l-14.76-24.27v29.59h-10.94v-50.4h9.65l18.87,31.32,18.58-31.32h9.58l.14,50.4h-10.94Z"/>
    <path class="cls-2" d="m287.14,560.52v9.36h-39.03v-50.4h38.09v9.36h-26.5v10.95h23.4v9.07h-23.4v11.67h27.43Z"/>
    <path class="cls-2" d="m298.94,519.47h11.67v40.9h25.27v9.5h-36.94v-50.4Z"/>
    <path class="cls-2" d="m383.98,560.52v9.36h-39.03v-50.4h38.09v9.36h-26.5v10.95h23.4v9.07h-23.4v11.67h27.43Z"/>
    <path class="cls-2" d="m392.47,544.68c0-14.98,11.67-26.07,27.58-26.07s27.58,11.02,27.58,26.07-11.74,26.07-27.58,26.07-27.58-11.09-27.58-26.07Zm43.35,0c0-9.58-6.77-16.13-15.77-16.13s-15.77,6.55-15.77,16.13,6.77,16.13,15.77,16.13,15.77-6.55,15.77-16.13Z"/>
    <path class="cls-2" d="m505.15,519.47v50.4h-9.58l-25.13-30.6v30.6h-11.52v-50.4h9.65l25.06,30.6v-30.6h11.52Z"/>
    <path class="cls-2" d="m531.28,528.83v13.32h23.33v9.36h-23.33v18.36h-11.67v-50.4h38.09v9.36h-26.43Z"/>
    <path class="cls-2" d="m592.34,552.02v17.86h-11.67v-18l-19.51-32.4h12.38l13.47,22.39,13.46-22.39h11.45l-19.59,32.55Z"/>
  </g>
</svg>