<?xml version="1.0" encoding="UTF-8"?>
<svg id="Layer_1" data-name="Layer 1" xmlns="http://www.w3.org/2000/svg" xmlns:xlink="http://www.w3.org/1999/xlink" viewBox="0 0 505.85 450.85">
  <defs>
    <style>
      .cls-1 {
        fill: url(#linear-gradient);
      }
    </style>
    <linearGradient id="linear-gradient" x1="357.39" y1="333.85" x2="81.94" y2="58.41" gradientUnits="userSpaceOnUse">
      <stop offset="0" stop-color="#ad54d3"/>
      <stop offset=".17" stop-color="#613482"/>
      <stop offset=".34" stop-color="#66f"/>
      <stop offset=".5" stop-color="#6f6"/>
      <stop offset=".67" stop-color="#ff6"/>
      <stop offset=".84" stop-color="#ffc966"/>
      <stop offset="1" stop-color="#f66"/>
    </linearGradient>
  </defs>
  <path class="cls-1" d="M311.69,294.01c14.59,41.16,2.06,78.94-25.5,110.53-73.46,84.21-191.85,42.99-246.92-39.1C-4.3,300.51-12.2,218.09,18.5,145.85,58.27,52.27,157.45-10.31,260.1,14.6c4.34,1.05,27.84,7.46,29.13,9.92l-.97,65.05c-7.87,2.74-16.44,2.53-24.59,4.44-11.51,2.7-24.29,9.44-32.64,17.86-16.31,16.45-19.48,37.52-6.16,56.97,3.48,5.09,26.45,29.21,25.82,32.16-.11.51-1.1,1.14-1.72,1.31-14.23,2.66-28.8,3.49-43.25,3.17.06-2.77-.8-5.14-1.87-7.63-5.24-12.22-38.39-44.78-49.65-55.35-31.86-29.9-61.53-20.81-86.5,11.55-5.61,7.27-15.72,20.87-8.42,29.41,5.19,1.16,17.44-18.04,20.88-21.94,13.4-15.15,32.34-31.73,52.43-17.4,12.41,8.85,50,44.77,56.63,57.37,4.14,7.87,6.26,17.17,6.46,26.04-8.42-.23-18.02.57-26.27-1.24-6.54-1.44-12.95-12.31-17.71-17.29-6.32-6.62-14.2-15.15-21.01-20.99-7.75-6.65-10.74-9.71-16.83,1.19-4.72,8.45-.2,6.4,4.84,10.79,2.68,2.33,21.52,20.64,21.82,22.17.53,2.73-8.52,9.25-10.87,11.83-17.95,19.72-21.43,61.78-14.69,86.74,12.74,47.15,52.38,77.62,102.09,73.66,59.54-4.75,90.29-89.39,31.32-115.06-28.14-12.25-62.62,14.34-55.01,45.01,3.11,12.51,20.8,26.61,33.87,22.23,9.8-3.28,16.27-13.15,11.43-23.05-7.61,7.35-13.69,13.25-23.9,5.41-18.14-13.93,5.63-43.52,28.58-34.58,24.93,9.7,25.92,39.44,11.76,59.1-40.05,55.62-110.11,8.43-96.16-56.16,17.45-80.78,126.51-77.32,152.74-3.29ZM499.23,156.48c-5.62-.62-14.16-.12-20.09,0-38.95.85-83.32,3.56-122.01,1.09-4.8-.31-14.31-.85-15.43-6.57-.52-2.67-.46-7.35,2.68-8.27l56.3-2.21c.3-2.63-.05-1.58-1.47-2.01-11.14-3.36-20.88-6.78-29.08-15.4-22.35-23.48-15.87-61.8,15.57-73.06,4.07-1.46,8.8-1.61,12.29-2.71,1.01-.32,1.93-1.16,1.68-2.3-.16-.73-9.09-9.28-10.53-10.49-14.98-12.64-43.85-28.7-62.84-33.16-27.48-6.45-20.86,10.5-21.59,29.67-.65,17.01-2.57,36.95.02,53.9,1.06,6.96,9.95,12.63,7.94,20.57-14.28.56-30.18.66-44.23,3.27-23.77,4.4-49.36,28.9-30.28,52.74,13.08,16.36,33.49,32.02,48.03,47.97,7.31,8.02,7.61,14.11,19.27,17.73,8.49,2.64,17.46,2.31,26.22,3.29-.21-11.45-3.14-22.25-10.17-31.33l-51.88-51.11c-7.1-8.28,15.4-9.13,17.06-8.09.76.48,8.31,12.06,10.47,14.54,14.1,16.17,31.19,29.87,42.51,48.49,11.9.52,23.21,2.31,34.75-.85,2.66.97,4.65,12.82,6.27,14.34,1.77,1.66,1.67-.63,2.07-1.42,2-3.93,5.06-15.56,9.33-15.62.76-.01,4.32,12.58,6.07,14.03,4.01-1.61,6.27-15.22,8.11-15.89,4.41-1.59,4.03,4.17,6.01,7.78,1.04,1.89,2.26,3.66,3.88,5.1,2.68-1.98,7.77-16,10-15.96l9,12.96c3.09-1.62,8.72-16.41,9.51-16.98,3.24-2.34,8.24,15.56,10.98,13,.28-2.58,6.2-16.41,7.52-16.99,1.71-.76,7.06,10.75,8.99,11.97,4.97-4.84,7.21-11.32,8.51-17.98,2.09-1.53,6,8.8,9.98,6.99,1.9-4.35.48-7.89.15-12.27l11.84-17.22c-.95-1.46-1.92-1.38-3.43-1.55ZM413.35,122.7c33.91-11.63,28.69-66.5-13.9-61.89-45.42,4.92-29.33,76.72,13.9,61.89ZM480.65,104.05c-2.49-3.01-5.86-5.58-8.49-8.51-7.37-8.23-13.13-16.98-22.99-23.01-.13,7.41,1.14,14.89.38,22.37-2.25,22.33-20.67,40.84-42.88,43.63-.25,2.68,0,1.61,1.5,1.97,4.18,1.01,11.57,1.82,15.96,2.06,26.67,1.48,54.73-1.19,81.54-.05,2.49-2.22-22.25-35.11-25.02-38.47ZM407.12,102.47c10.89-1.72,9.76-21.09-2.67-19.76-14.38,1.54-12.02,22.08,2.67,19.76Z"/>
</svg>