<?xml version="1.0" encoding="UTF-8"?>
<svg id="Layer_1" data-name="Layer 1" xmlns="http://www.w3.org/2000/svg" viewBox="0 0 611.93 52.13">
  <defs>
    <style>
      .cls-1 {
        isolation: isolate;
      }

      .cls-2 {
        fill: #f5f5f5;
        stroke-width: 0px;
      }
    </style>
  </defs>
  <g class="cls-1">
    <path class="cls-2" d="m0,26.07C0,10.87,11.67,0,27.36,0c8.71,0,15.99,3.17,20.74,8.93l-7.49,6.91c-3.38-3.89-7.63-5.91-12.67-5.91-9.43,0-16.13,6.62-16.13,16.13s6.7,16.13,16.13,16.13c5.04,0,9.29-2.02,12.67-5.98l7.49,6.91c-4.75,5.83-12.02,9-20.81,9C11.67,52.13,0,41.26,0,26.07Z"/>
    <path class="cls-2" d="m104.69.86v50.4h-11.67v-20.67h-22.9v20.67h-11.67V.86h11.67v19.87h22.9V.86h11.67Z"/>
    <path class="cls-2" d="m152.35,40.47h-23.4l-4.46,10.8h-11.95L135,.86h11.52l22.54,50.4h-12.24l-4.46-10.8Zm-3.67-8.86l-7.99-19.3-7.99,19.3h15.99Z"/>
    <path class="cls-2" d="m222.7,51.27l-.07-30.24-14.83,24.91h-5.26l-14.76-24.27v29.59h-10.94V.86h9.65l18.87,31.32L223.92.86h9.58l.14,50.4h-10.94Z"/>
    <path class="cls-2" d="m287.14,41.91v9.36h-39.03V.86h38.09v9.36h-26.5v10.95h23.4v9.07h-23.4v11.67h27.43Z"/>
    <path class="cls-2" d="m298.94.86h11.67v40.9h25.27v9.5h-36.94V.86Z"/>
    <path class="cls-2" d="m383.98,41.91v9.36h-39.03V.86h38.09v9.36h-26.5v10.95h23.4v9.07h-23.4v11.67h27.43Z"/>
    <path class="cls-2" d="m392.47,26.07c0-14.98,11.67-26.07,27.58-26.07s27.58,11.02,27.58,26.07-11.74,26.07-27.58,26.07-27.58-11.09-27.58-26.07Zm43.35,0c0-9.58-6.77-16.13-15.77-16.13s-15.77,6.55-15.77,16.13,6.77,16.13,15.77,16.13,15.77-6.55,15.77-16.13Z"/>
    <path class="cls-2" d="m505.15.86v50.4h-9.58l-25.13-30.6v30.6h-11.52V.86h9.65l25.06,30.6V.86h11.52Z"/>
    <path class="cls-2" d="m531.28,10.22v13.32h23.33v9.36h-23.33v18.36h-11.67V.86h38.09v9.36h-26.43Z"/>
    <path class="cls-2" d="m592.34,33.41v17.86h-11.67v-18L561.16.86h12.38l13.47,22.39,13.46-22.39h11.45l-19.59,32.55Z"/>
  </g>
</svg>